<?xml version="1.0" encoding="UTF-8"?>
<svg id="Layer_1" data-name="Layer 1" xmlns="http://www.w3.org/2000/svg" viewBox="0 0 31.76 31.76">
  <defs>
    <style>
      .cls-1 {
        fill: #a7bf4e;
      }

      .cls-2 {
        fill: #404040;
      }
    </style>
  </defs>
  <path class="cls-2" d="m27.88,27.88c-5.54,5.17-18.46,5.17-24,0-5.17-5.54-5.17-18.46,0-24,5.54-5.17,18.46-5.17,24,0,5.17,5.54,5.17,18.46,0,24Z"/>
  <path class="cls-1" d="m15.88,25.88c5.52,0,10-4.48,10-10s-4.48-10-10-10S5.88,10.36,5.88,15.88s4.48,10,10,10Zm0-3.12c-3.24,0-5.91-2.46-6.22-5.62h12.44c-.31,3.16-2.98,5.62-6.22,5.62Zm-3.12-11.56c1.09,0,2.19,1.56,2.19,3.12,0,0-1.09-1.25-2.19-1.25s-2.19,1.25-2.19,1.25c0-1.56,1.09-3.12,2.19-3.12Zm4.06,3.12c0-1.56,1.09-3.12,2.19-3.12s2.19,1.56,2.19,3.12c0,0-1.09-1.25-2.19-1.25s-2.19,1.25-2.19,1.25Z"/>
</svg>