<?xml version="1.0" encoding="UTF-8"?>
<svg id="Layer_1" data-name="Layer 1" xmlns="http://www.w3.org/2000/svg" xmlns:xlink="http://www.w3.org/1999/xlink" viewBox="0 0 512 512">
  <defs>
    <style>
      .cls-1 {
        fill: #fff;
        opacity: .7;
      }

      .cls-2 {
        fill: url(#linear-gradient);
      }
    </style>
    <linearGradient id="linear-gradient" x1="86.28" y1="100.58" x2="428.37" y2="413.85" gradientUnits="userSpaceOnUse">
      <stop offset=".05" stop-color="#da2b6e"/>
      <stop offset=".7" stop-color="#e34f4d"/>
    </linearGradient>
  </defs>
  <rect class="cls-2" width="512" height="512" rx="128" ry="128"/>
  <path class="cls-1" d="m256.35,430.94c96.65,0,175-78.35,175-175s-78.35-175-175-175S81.35,159.29,81.35,255.94s78.35,175,175,175Zm90.3-136.17c8.41-2.6,16.61,4.72,13.19,12.78-17.09,40.4-56.87,68.7-103.29,68.7s-86.27-28.3-103.29-68.7c-3.42-8.07,4.79-15.38,13.19-12.78,27.14,8.34,57.76,12.99,90.1,12.99s62.96-4.65,90.1-12.99h0Zm-174.04-113.54l61.46,32.74c7.31,3.9,7.31,14.42,0,18.32l-61.46,32.74c-5.4,2.87-11.96-1.03-11.96-7.18,0-1.91.68-3.76,1.91-5.2l24.61-29.53-24.61-29.53c-1.23-1.44-1.91-3.28-1.91-5.2,0-6.15,6.56-10.05,11.96-7.18h0Zm179.44,7.11c0,1.91-.68,3.76-1.91,5.2l-24.61,29.53,24.61,29.53c1.23,1.44,1.91,3.28,1.91,5.2,0,6.15-6.56,10.05-11.96,7.18l-61.46-32.74c-7.31-3.9-7.31-14.42,0-18.32l61.46-32.74c5.4-2.87,11.96,1.03,11.96,7.18Z"/>
</svg>